/vscmnt/brussel_pixiu_data/_data_brussel/112/vsc11236/PredSimResults/SUBJ04mtu3D/worker6.mot
version=1
nRows=4
nColumns=50
inDegrees=yes
endheader
                time	         pelvis_tilt	         pelvis_list	     pelvis_rotation	           pelvis_tx	           pelvis_ty	           pelvis_tz	       hip_flexion_r	     hip_adduction_r	      hip_rotation_r	        knee_angle_r	       ankle_angle_r	         mtp_angle_r	       hip_flexion_l	     hip_adduction_l	      hip_rotation_l	        knee_angle_l	       ankle_angle_l	         mtp_angle_l	    lumbar_extension	      lumbar_bending	     lumbar_rotation	 ercspn_r/activation	 intobl_r/activation	 extobl_r/activation	    abd_r/activation	    add_r/activation	hamstrings_r/activation	bifemsh_r/activation	glut_max_r/activation	iliopsoas_r/activation	rect_fem_r/activation	  vasti_r/activation	gastroc_r/activation	 soleus_r/activation	tib_ant_r/activation	 ercspn_l/activation	 intobl_l/activation	 extobl_l/activation	    abd_l/activation	    add_l/activation	hamstrings_l/activation	bifemsh_l/activation	glut_max_l/activation	iliopsoas_l/activation	rect_fem_l/activation	  vasti_l/activation	gastroc_l/activation	 soleus_l/activation	tib_ant_l/activation	
          2.05146613	         -3.03689478	         -1.40582051	         -7.82875943	          1.92837816	          0.87988911	          0.01245607	        -13.29802462	          0.72702849	         -9.06616321	         -6.48602431	         10.02688982	         24.37259650	         29.11578422	         -4.15804123	         -8.30228520	         -7.76730981	          4.90567266	          0.23593729	        -14.06189100	          4.53916749	          7.08274468	          0.01555359	          0.01000132	          0.01000313	          0.05252862	          0.01002170	          0.02326482	          0.10093410	          0.01810689	          0.01013665	          0.01000862	          0.01000273	          0.37060769	          0.18624751	          0.01000088	          0.02095419	          0.22360271	          0.02236281	          0.01000101	          0.22568276	          0.09121751	          0.14355356	          0.01618297	          0.16209056	          0.01544218	          0.01000137	          0.02285343	          0.01719178	          0.28547329	
          2.06514257	         -3.13242475	         -1.45470725	         -7.61081660	          1.94467773	          0.87777273	          0.01180889	        -14.02327865	          0.65717327	         -9.72986497	         -6.98227127	          9.49445896	         25.85919955	         29.10083949	         -4.12089001	         -8.56247671	         -9.42932163	          4.57782608	          0.22481134	        -13.57558940	          3.98904399	          7.17987365	          0.02343544	          0.01000099	          0.01001642	          0.04277792	          0.01003212	          0.01896692	          0.08220031	          0.01474611	          0.01000479	          0.01000264	          0.01001710	          0.34991836	          0.17947766	          0.01000052	          0.01706554	          0.21865830	          0.01821180	          0.02941563	          0.18379546	          0.08746299	          0.11691304	          0.04483172	          0.13200217	          0.01257621	          0.01000050	          0.01861171	          0.01400090	          0.32255125	
          2.07881901	         -3.21417572	         -1.44918844	         -7.34151378	          1.96127106	          0.87599929	          0.01107737	        -14.60397499	          0.50767721	        -10.42602559	         -7.78686053	          8.86212199	         27.39095902	         29.00164733	         -4.05113660	         -8.81471234	        -10.91316568	          4.08113504	          0.21025932	        -13.06657396	          3.35337888	          7.24846724	          0.05628808	          0.01000035	          0.01000118	          0.03483721	          0.01000557	          0.01545525	          0.06694368	          0.01200907	          0.01852399	          0.01504888	          0.01000180	          0.32244922	          0.16508955	          0.01000090	          0.03799491	          0.17807013	          0.01483136	          0.05846541	          0.20595554	          0.07878407	          0.09521271	          0.09731775	          0.10749902	          0.01024357	          0.01472097	          0.01515749	          0.01140548	          0.34256298	
          2.09249545	         -3.28100987	         -1.41354722	         -7.01836939	          1.97797346	          0.87476633	          0.01022334	        -14.95460445	          0.28673517	        -11.15994604	         -9.03412442	          8.09551690	         28.96612326	         28.89147823	         -3.96186069	         -9.14822216	        -12.40219257	          3.62007801	          0.19197533	        -12.56199803	          2.66846787	          7.28478864	          0.06506077	          0.01000049	          0.01000134	          0.02837052	          0.01000864	          0.01261573	          0.05451844	          0.01000125	          0.01508826	          0.01227027	          0.01001817	          0.28877386	          0.15204455	          0.01000065	          0.03421016	          0.14501547	          0.01207861	          0.08229787	          0.22253879	          0.07387160	          0.07754108	          0.08022447	          0.08754434	          0.01000422	          0.05973053	          0.01234460	          0.01000226	          0.37177917	
